<svg id="Capa_1" enable-background="new 0 0 512 512" height="512" viewBox="0 0 512 512" width="512" xmlns="http://www.w3.org/2000/svg"><g><path d="m136 30h360v482h-360z" fill="#e4f3ff"/><path d="m316 30h180v482h-180z" fill="#c3dafd"/><path d="m226 0h180v60h-180z" fill="#f4d853"/><path d="m316 0h90v60h-90z" fill="#e9a734"/><path d="m271 165h150v30h-150z" fill="#457899"/><path d="m271 255h150v30h-150z" fill="#457899"/><path d="m316 165h105v30h-105z" fill="#365c75"/><path d="m316 255h105v30h-105z" fill="#365c75"/><path d="m211 255h30v30h-30z" fill="#457899"/><path d="m211 165h30v30h-30z" fill="#457899"/><path d="m166 512h-54.885c-52.963 0-95.115-42.853-95.115-96.114v-34.72h53.885c52.998 0 96.115 43.117 96.115 96.115z" fill="#b6dc45"/><path d="m190.885 512h-54.885v-34.719c0-52.998 43.117-96.115 96.115-96.115h53.885v34.72c0 53.184-42.066 96.114-95.115 96.114z" fill="#73ca7a"/></g></svg>